<svg xmlns="http://www.w3.org/2000/svg" viewBox="0 0 400 131.24" width="400" height="131.24">
  <defs>
    <linearGradient id="reflFade" x1="0" y1="0" x2="0" y2="1">
      <stop offset="0%" stop-color="white" stop-opacity="0.55"/>
      <stop offset="40%" stop-color="white" stop-opacity="0.20"/>
      <stop offset="100%" stop-color="white" stop-opacity="0"/>
    </linearGradient>
    <mask id="reflMask" maskUnits="userSpaceOnUse" x="0" y="90.16" width="400" height="46.34">
      <rect x="0" y="90.16" width="400" height="46.34" fill="url(#reflFade)"/>
    </mask>
  </defs>

  <g fill="#E50914" mask="url(#reflMask)">
    <path d="M61 0V500H211L218 392Q237 448 274.5 479.0Q312 510 370 510Q389 510 402.5 507.0Q416 504 424 499L407 359Q397 363 381.5 365.5Q366 368 344 368Q314 368 288.0 355.0Q262 342 246.5 316.5Q231 291 231 252V0Z" transform="translate(24.00 94.37) scale(0.09060 0.09060)"/>
    <path d="M305 -10Q222 -10 161.5 21.0Q101 52 68.0 110.0Q35 168 35 250Q35 332 68.0 390.0Q101 448 160.5 479.0Q220 510 297 510Q376 510 431.5 479.5Q487 449 516.0 395.5Q545 342 545 273Q545 255 544.0 237.0Q543 219 541 207H145V298H466L385 267Q385 327 363.5 359.0Q342 391 297 391Q265 391 242.5 376.0Q220 361 208.5 329.0Q197 297 197 247Q197 198 210.0 167.5Q223 137 247.0 123.5Q271 110 305 110Q343 110 365.5 125.0Q388 140 399 167L535 122Q521 79 486.5 49.5Q452 20 404.5 5.0Q357 -10 305 -10Z" transform="translate(62.96 94.37) scale(0.09060 0.09060)"/>
    <path d="M245 -10Q183 -10 136.5 20.5Q90 51 64.5 109.0Q39 167 39 248Q39 332 65.5 390.0Q92 448 139.5 479.0Q187 510 249 510Q317 510 358.5 468.5Q400 427 412 363L396 342V712H566V0H414L403 170L423 155Q417 105 392.5 68.0Q368 31 330.5 10.5Q293 -10 245 -10ZM304 115Q333 115 353.5 130.5Q374 146 385.0 177.0Q396 208 396 253Q396 295 385.5 324.5Q375 354 354.5 369.5Q334 385 305 385Q261 385 235.5 352.5Q210 320 210 250Q210 180 235.0 147.5Q260 115 304 115Z" transform="translate(115.42 94.37) scale(0.09060 0.09060)"/>
    <path d="M245 -10Q183 -10 136.5 20.5Q90 51 64.5 109.0Q39 167 39 248Q39 332 65.5 390.0Q92 448 139.5 479.0Q187 510 249 510Q317 510 358.5 468.5Q400 427 412 363L396 342V712H566V0H414L403 170L423 155Q417 105 392.5 68.0Q368 31 330.5 10.5Q293 -10 245 -10ZM304 115Q333 115 353.5 130.5Q374 146 385.0 177.0Q396 208 396 253Q396 295 385.5 324.5Q375 354 354.5 369.5Q334 385 305 385Q261 385 235.5 352.5Q210 320 210 250Q210 180 235.0 147.5Q260 115 304 115Z" transform="translate(172.23 94.37) scale(0.09060 0.09060)"/>
    <path d="M294 726Q335 726 366.0 717.5Q397 709 412 698L395 592Q384 599 370.0 603.0Q356 607 335 607Q300 607 277.5 591.0Q255 575 255 535V470L265 442V0H95V546Q95 594 110.5 628.0Q126 662 154.0 684.0Q182 706 218.0 716.0Q254 726 294 726ZM407 500V379H15V500Z" transform="translate(229.04 94.37) scale(0.09060 0.09060)"/>
    <path d="M229 712V170Q229 137 240.0 123.0Q251 109 277 109Q292 109 302.0 111.0Q312 113 326 117L315 15Q297 4 268.0 -3.0Q239 -10 211 -10Q131 -10 95.0 27.0Q59 64 59 148V712Z" transform="translate(266.64 94.37) scale(0.09060 0.09060)"/>
    <path d="M146 558Q94 558 70.5 577.5Q47 597 47 639Q47 682 70.5 701.5Q94 721 146 721Q197 721 221.0 701.5Q245 682 245 639Q245 597 221.0 577.5Q197 558 146 558ZM231 500V0H61V500Z" transform="translate(296.27 94.37) scale(0.09060 0.09060)"/>
    <path d="M208 500 330 275 386 280 583 0H388L262 228H203L12 500ZM579 500 390 230 327 234 196 0H5L206 282L264 274L388 500Z" transform="translate(322.63 94.37) scale(0.09060 0.09060)"/>
  </g>

  <g fill="#E50914">
    <path d="M61 0V500H211L218 392Q237 448 274.5 479.0Q312 510 370 510Q389 510 402.5 507.0Q416 504 424 499L407 359Q397 363 381.5 365.5Q366 368 344 368Q314 368 288.0 355.0Q262 342 246.5 316.5Q231 291 231 252V0Z" transform="translate(24.00 84.26) scale(0.09060 -0.09060)"/>
    <path d="M305 -10Q222 -10 161.5 21.0Q101 52 68.0 110.0Q35 168 35 250Q35 332 68.0 390.0Q101 448 160.5 479.0Q220 510 297 510Q376 510 431.5 479.5Q487 449 516.0 395.5Q545 342 545 273Q545 255 544.0 237.0Q543 219 541 207H145V298H466L385 267Q385 327 363.5 359.0Q342 391 297 391Q265 391 242.5 376.0Q220 361 208.5 329.0Q197 297 197 247Q197 198 210.0 167.5Q223 137 247.0 123.5Q271 110 305 110Q343 110 365.5 125.0Q388 140 399 167L535 122Q521 79 486.5 49.5Q452 20 404.5 5.0Q357 -10 305 -10Z" transform="translate(62.96 84.26) scale(0.09060 -0.09060)"/>
    <path d="M245 -10Q183 -10 136.5 20.5Q90 51 64.5 109.0Q39 167 39 248Q39 332 65.5 390.0Q92 448 139.5 479.0Q187 510 249 510Q317 510 358.5 468.5Q400 427 412 363L396 342V712H566V0H414L403 170L423 155Q417 105 392.5 68.0Q368 31 330.5 10.5Q293 -10 245 -10ZM304 115Q333 115 353.5 130.5Q374 146 385.0 177.0Q396 208 396 253Q396 295 385.5 324.5Q375 354 354.5 369.5Q334 385 305 385Q261 385 235.5 352.5Q210 320 210 250Q210 180 235.0 147.5Q260 115 304 115Z" transform="translate(115.42 84.26) scale(0.09060 -0.09060)"/>
    <path d="M245 -10Q183 -10 136.5 20.5Q90 51 64.5 109.0Q39 167 39 248Q39 332 65.5 390.0Q92 448 139.5 479.0Q187 510 249 510Q317 510 358.5 468.5Q400 427 412 363L396 342V712H566V0H414L403 170L423 155Q417 105 392.5 68.0Q368 31 330.5 10.5Q293 -10 245 -10ZM304 115Q333 115 353.5 130.5Q374 146 385.0 177.0Q396 208 396 253Q396 295 385.5 324.5Q375 354 354.5 369.5Q334 385 305 385Q261 385 235.5 352.5Q210 320 210 250Q210 180 235.0 147.5Q260 115 304 115Z" transform="translate(172.23 84.26) scale(0.09060 -0.09060)"/>
    <path d="M294 726Q335 726 366.0 717.5Q397 709 412 698L395 592Q384 599 370.0 603.0Q356 607 335 607Q300 607 277.5 591.0Q255 575 255 535V470L265 442V0H95V546Q95 594 110.5 628.0Q126 662 154.0 684.0Q182 706 218.0 716.0Q254 726 294 726ZM407 500V379H15V500Z" transform="translate(229.04 84.26) scale(0.09060 -0.09060)"/>
    <path d="M229 712V170Q229 137 240.0 123.0Q251 109 277 109Q292 109 302.0 111.0Q312 113 326 117L315 15Q297 4 268.0 -3.0Q239 -10 211 -10Q131 -10 95.0 27.0Q59 64 59 148V712Z" transform="translate(266.64 84.26) scale(0.09060 -0.09060)"/>
    <path d="M146 558Q94 558 70.5 577.5Q47 597 47 639Q47 682 70.5 701.5Q94 721 146 721Q197 721 221.0 701.5Q245 682 245 639Q245 597 221.0 577.5Q197 558 146 558ZM231 500V0H61V500Z" transform="translate(296.27 84.26) scale(0.09060 -0.09060)"/>
    <path d="M208 500 330 275 386 280 583 0H388L262 228H203L12 500ZM579 500 390 230 327 234 196 0H5L206 282L264 274L388 500Z" transform="translate(322.63 84.26) scale(0.09060 -0.09060)"/>
  </g>
</svg>
